# xmcd
#
# Track frame offsets: 
#        150
#        12735
#        27740
#        45442
#        62159
#        81314
#        98505
#        114394
#        128440
#        141767
#        160666
#        174921
#        193199
#        212585
#        227334
#        246439
#        261573
#        278197
#        295684
#        309652
#        327893
#
# Disc length: 4562 seconds
#
# Revision: 0
# Processed by: cddbd v1.5.2PL0 Copyright (c) Steve Scherf et al.
# Submitted via: ExactAudioCopy v1.0b1
#
DISCID=2a11d015
DTITLE=Lee Kernaghan - Ultimate Hits [CD1]
DYEAR=2011
DGENRE=Country
TTITLE0=Boys From The Bush (1992)
TTITLE1=Dirt (2009)
TTITLE2=Gondiwindi Moon (With Trisha Yearwood) (1998)
TTITLE3=She's My Ute (1993)
TTITLE4=Way It Is, The (2002)
TTITLE5=High Country (1992)
TTITLE6=Love In The Time Of Drought (2009)
TTITLE7=Listen To The Radio (2006)
TTITLE8=Scars (With Dierks Bentley (2009)
TTITLE9=Changi Banjo (1998)
TTITLE10=Cunnamulla Fella (2000)
TTITLE11=Diamantina Dream (With Trisha Yearwood) (2006)
TTITLE12=You Rock My World (2002)
TTITLE13=Leave Him In The Longyard (With Slim Dusty) (1993)
TTITLE14=Three Chain Road (1993)
TTITLE15=Scrubbashin' (1995)
TTITLE16=Mate (2007)
TTITLE17=Country Crowd (1995)
TTITLE18=Skinny Dippin' (1995)
TTITLE19=This Cowboy's Hat (1995)
TTITLE20=Australian Boy (2009)
EXTD=
EXTT0=
EXTT1=
EXTT2=
EXTT3=
EXTT4=
EXTT5=
EXTT6=
EXTT7=
EXTT8=
EXTT9=
EXTT10=
EXTT11=
EXTT12=
EXTT13=
EXTT14=
EXTT15=
EXTT16=
EXTT17=
EXTT18=
EXTT19=
EXTT20=
PLAYORDER=
